<?xml version="1.0" standalone="no"?>
<!DOCTYPE svg PUBLIC "-//W3C//DTD SVG 20010904//EN"
 "http://www.w3.org/TR/2001/REC-SVG-20010904/DTD/svg10.dtd">
<svg version="1.0" xmlns="http://www.w3.org/2000/svg"
 width="641.000000pt" height="641.000000pt" viewBox="0 0 641.000000 641.000000"
 preserveAspectRatio="xMidYMid meet">
<metadata>
Created by potrace 1.14, written by Peter Selinger 2001-2017
</metadata>
<g transform="translate(0.000000,641.000000) scale(0.100000,-0.100000)"
fill="#000000" stroke="none">
<path d="M3715 6200 c3 -5 8 -10 11 -10 2 0 4 5 4 10 0 6 -5 10 -11 10 -5 0
-7 -4 -4 -10z"/>
<path d="M3172 5723 c-11 -21 -129 -317 -242 -608 -45 -115 -98 -250 -118
-300 -19 -49 -52 -135 -72 -190 -20 -55 -53 -143 -73 -195 -65 -172 -186 -509
-313 -870 -68 -195 -131 -371 -140 -390 -8 -19 -41 -118 -73 -220 -48 -151
-311 -930 -492 -1460 -22 -63 -49 -148 -60 -188 -11 -40 -36 -106 -55 -147
-43 -90 -43 -135 0 -60 58 101 97 156 107 149 6 -3 9 0 8 7 -5 21 21 60 33 53
7 -4 8 -3 4 5 -8 13 89 156 107 156 7 1 11 6 9 13 -2 12 48 85 118 172 20 25
72 89 114 143 44 55 82 94 88 91 6 -4 8 -2 4 4 -3 6 15 37 41 69 26 32 106
130 177 218 183 225 253 311 311 380 237 280 255 297 342 318 27 7 47 17 46
22 -2 6 -59 13 -130 16 -198 9 -256 44 -255 152 1 55 -2 48 285 757 95 236
142 351 224 548 3 6 13 12 23 12 22 0 44 -48 226 -500 352 -876 330 -811 299
-880 -28 -62 -79 -82 -223 -87 -65 -2 -127 -6 -139 -9 -37 -7 -26 -22 21 -29
68 -11 130 -53 193 -131 32 -40 137 -167 233 -284 538 -654 496 -601 745 -925
63 -82 127 -163 141 -180 38 -45 170 -245 190 -287 10 -21 22 -38 27 -38 11 0
9 7 -39 130 -20 52 -123 351 -229 665 -106 314 -221 649 -255 745 -80 226
-230 654 -330 940 -116 330 -190 537 -254 700 -31 80 -93 240 -138 355 -45
116 -139 356 -211 535 -71 179 -151 381 -177 450 -45 121 -76 190 -85 190 -2
0 -8 -8 -13 -17z m25 -980 c-1 -98 -2 -20 -2 172 -1 193 1 273 2 178 2 -94 2
-252 0 -350z"/>
<path d="M5020 5511 c0 -5 9 -7 20 -4 11 3 20 7 20 9 0 2 -9 4 -20 4 -11 0
-20 -4 -20 -9z"/>
<path d="M10 5090 c0 -5 5 -10 10 -10 6 0 10 5 10 10 0 6 -4 10 -10 10 -5 0
-10 -4 -10 -10z"/>
<path d="M1730 4155 c-7 -8 -9 -15 -6 -15 4 0 14 7 22 15 9 8 11 15 6 15 -5 0
-15 -7 -22 -15z"/>
<path d="M3180 3738 c0 -79 -5 -242 -10 -363 -8 -189 -15 -243 -44 -385 -69
-327 -96 -448 -136 -615 -22 -93 -46 -191 -52 -218 -11 -44 -10 -49 12 -72 36
-38 83 -34 109 9 12 18 41 44 65 56 43 24 43 24 49 89 4 36 10 176 14 311 l8
245 11 -265 c7 -146 12 -284 13 -307 1 -37 5 -44 34 -59 40 -20 97 -74 97 -91
0 -23 55 -15 80 12 l23 25 -78 347 c-85 380 -130 602 -139 685 -3 29 -11 177
-16 328 -11 312 -19 410 -31 410 -5 0 -9 -64 -9 -142z"/>
<path d="M1030 3529 c0 -5 5 -7 10 -4 6 3 10 8 10 11 0 2 -4 4 -10 4 -5 0 -10
-5 -10 -11z"/>
<path d="M2060 3170 c-8 -5 -11 -12 -7 -16 4 -4 13 -2 19 4 15 15 7 24 -12 12z"/>
<path d="M670 2930 c0 -5 5 -10 11 -10 5 0 7 5 4 10 -3 6 -8 10 -11 10 -2 0
-4 -4 -4 -10z"/>
<path d="M90 2710 c0 -5 14 -10 31 -10 17 0 28 4 24 10 -3 6 -17 10 -31 10
-13 0 -24 -4 -24 -10z"/>
<path d="M150 2495 c-7 -9 -11 -18 -8 -20 9 -10 38 7 38 21 0 18 -14 18 -30
-1z"/>
<path d="M285 2500 c3 -5 8 -10 11 -10 2 0 4 5 4 10 0 6 -5 10 -11 10 -5 0 -7
-4 -4 -10z"/>
<path d="M380 2369 c0 -5 5 -7 10 -4 6 3 10 8 10 11 0 2 -4 4 -10 4 -5 0 -10
-5 -10 -11z"/>
<path d="M57 2289 c7 -7 15 -10 18 -7 3 3 -2 9 -12 12 -14 6 -15 5 -6 -5z"/>
<path d="M178 2263 c7 -3 16 -2 19 1 4 3 -2 6 -13 5 -11 0 -14 -3 -6 -6z"/>
<path d="M60 2250 c-13 -8 -12 -10 3 -10 9 0 17 5 17 10 0 12 -1 12 -20 0z"/>
<path d="M4655 2240 c-3 -5 -1 -10 4 -10 6 0 11 5 11 10 0 6 -2 10 -4 10 -3 0
-8 -4 -11 -10z"/>
<path d="M365 2220 c-3 -5 3 -10 15 -10 12 0 18 5 15 10 -3 6 -10 10 -15 10
-5 0 -12 -4 -15 -10z"/>
<path d="M640 2210 c0 -5 5 -10 11 -10 5 0 7 5 4 10 -3 6 -8 10 -11 10 -2 0
-4 -4 -4 -10z"/>
<path d="M246 2123 c-6 -14 -5 -15 5 -6 7 7 10 15 7 18 -3 3 -9 -2 -12 -12z"/>
<path d="M348 2100 c-10 -11 -13 -22 -8 -25 6 -4 10 -1 10 5 0 7 6 10 13 7 8
-3 14 3 14 14 2 23 -7 23 -29 -1z"/>
<path d="M675 2093 c-28 -7 -46 -23 -39 -35 4 -6 9 -7 13 -1 3 6 20 17 36 26
30 16 27 19 -10 10z"/>
<path d="M855 2049 c-4 -6 -5 -12 -2 -15 2 -3 7 2 10 11 7 17 1 20 -8 4z"/>
<path d="M135 2020 c3 -5 8 -10 11 -10 2 0 4 5 4 10 0 6 -5 10 -11 10 -5 0 -7
-4 -4 -10z"/>
<path d="M1420 2019 c0 -5 5 -7 10 -4 6 3 10 8 10 11 0 2 -4 4 -10 4 -5 0 -10
-5 -10 -11z"/>
<path d="M34 2012 c4 -7 2 -19 -4 -27 -7 -9 -8 -15 -2 -15 16 0 24 32 11 44
-9 8 -10 8 -5 -2z"/>
<path d="M585 1970 c-3 -5 -1 -10 4 -10 6 0 11 5 11 10 0 6 -2 10 -4 10 -3 0
-8 -4 -11 -10z"/>
<path d="M961 1923 c0 -25 1 -26 9 -8 12 27 12 35 0 35 -5 0 -10 -12 -9 -27z"/>
<path d="M201 1914 c0 -11 3 -14 6 -6 3 7 2 16 -1 19 -3 4 -6 -2 -5 -13z"/>
<path d="M941 1914 c0 -11 3 -14 6 -6 3 7 2 16 -1 19 -3 4 -6 -2 -5 -13z"/>
<path d="M410 1909 c0 -5 5 -7 10 -4 6 3 10 8 10 11 0 2 -4 4 -10 4 -5 0 -10
-5 -10 -11z"/>
<path d="M640 1899 c0 -5 5 -7 10 -4 6 3 10 8 10 11 0 2 -4 4 -10 4 -5 0 -10
-5 -10 -11z"/>
<path d="M30 1839 c0 -5 5 -7 10 -4 6 3 10 8 10 11 0 2 -4 4 -10 4 -5 0 -10
-5 -10 -11z"/>
<path d="M131 1824 c0 -11 3 -14 6 -6 3 7 2 16 -1 19 -3 4 -6 -2 -5 -13z"/>
<path d="M45 1810 c-3 -5 -1 -10 4 -10 6 0 11 5 11 10 0 6 -2 10 -4 10 -3 0
-8 -4 -11 -10z"/>
<path d="M136 1755 c-3 -8 -1 -15 4 -15 6 0 10 7 10 15 0 8 -2 15 -4 15 -2 0
-6 -7 -10 -15z"/>
<path d="M230 1755 c0 -8 5 -15 10 -15 6 0 10 7 10 15 0 8 -4 15 -10 15 -5 0
-10 -7 -10 -15z"/>
<path d="M315 1742 c-3 -10 0 -12 10 -8 8 3 15 1 15 -4 0 -18 16 -10 17 8 2
21 -34 25 -42 4z"/>
<path d="M160 1746 c0 -2 9 -6 20 -9 11 -3 20 -1 20 4 0 5 -9 9 -20 9 -11 0
-20 -2 -20 -4z"/>
<path d="M582 1736 c7 -8 16 -12 21 -9 11 7 -2 23 -19 23 -12 0 -12 -2 -2 -14z"/>
<path d="M216 1707 c3 -9 14 -12 30 -9 29 5 28 7 -8 16 -21 5 -26 3 -22 -7z"/>
<path d="M111 1687 c-34 -17 -37 -35 -9 -46 26 -10 48 3 48 28 -1 14 -2 14
-11 -2 -6 -9 -15 -15 -20 -11 -6 4 -4 13 7 25 20 22 18 23 -15 6z"/>
<path d="M330 1670 c0 -5 5 -10 11 -10 5 0 7 5 4 10 -3 6 -8 10 -11 10 -2 0
-4 -4 -4 -10z"/>
<path d="M1 1644 c0 -11 3 -14 6 -6 3 7 2 16 -1 19 -3 4 -6 -2 -5 -13z"/>
<path d="M182 1620 c1 -16 6 -30 10 -30 4 0 8 14 8 30 0 17 -5 30 -10 30 -6 0
-9 -13 -8 -30z"/>
<path d="M431 1634 c0 -11 3 -14 6 -6 3 7 2 16 -1 19 -3 4 -6 -2 -5 -13z"/>
<path d="M680 1629 c0 -5 5 -7 10 -4 6 3 10 8 10 11 0 2 -4 4 -10 4 -5 0 -10
-5 -10 -11z"/>
<path d="M66 1615 c-3 -8 -1 -15 4 -15 6 0 10 7 10 15 0 8 -2 15 -4 15 -2 0
-6 -7 -10 -15z"/>
<path d="M25 1572 c-10 -10 -5 -52 6 -52 6 0 8 9 4 20 -7 23 -2 25 26 10 11
-6 26 -7 34 -3 11 7 5 12 -25 19 -22 6 -42 9 -45 6z"/>
<path d="M790 1570 c8 -5 20 -10 25 -10 6 0 3 5 -5 10 -8 5 -19 10 -25 10 -5
0 -3 -5 5 -10z"/>
<path d="M212 1550 c0 -14 2 -19 5 -12 2 6 2 18 0 25 -3 6 -5 1 -5 -13z"/>
<path d="M365 1560 l-50 -7 63 -1 c40 -1 61 2 57 8 -3 6 -9 9 -13 8 -4 0 -29
-4 -57 -8z"/>
<path d="M610 1560 c0 -5 -7 -10 -15 -10 -8 0 -15 -4 -15 -10 0 -5 5 -10 10
-10 6 0 10 -7 10 -16 0 -8 5 -12 11 -9 6 4 8 13 5 21 -3 7 -1 16 4 19 13 8 13
25 0 25 -5 0 -10 -4 -10 -10z"/>
<path d="M150 1531 c0 -6 4 -13 10 -16 6 -3 7 1 4 9 -7 18 -14 21 -14 7z"/>
<path d="M90 1518 c0 -9 -14 -13 -45 -13 -45 0 -53 -7 -36 -34 6 -10 10 -10
16 -1 6 9 10 9 17 -1 8 -11 9 -10 5 3 -10 30 7 29 20 -2 12 -29 16 -31 55 -28
35 2 43 7 44 23 1 30 -6 37 -22 24 -10 -8 -14 -8 -15 0 -1 6 -2 17 -3 23 -1
17 -36 23 -36 6z"/>
<path d="M917 1523 c-10 -9 -9 -23 2 -23 5 0 11 7 15 15 5 15 -5 20 -17 8z"/>
<path d="M467 1479 c-4 -16 -3 -18 9 -8 16 13 19 29 5 29 -5 0 -11 -9 -14 -21z"/>
<path d="M1320 1491 c0 -6 5 -13 10 -16 6 -3 10 1 10 9 0 9 -4 16 -10 16 -5 0
-10 -4 -10 -9z"/>
<path d="M381 1474 c0 -11 3 -14 6 -6 3 7 2 16 -1 19 -3 4 -6 -2 -5 -13z"/>
<path d="M605 1450 c-3 -5 1 -10 10 -10 9 0 13 5 10 10 -3 6 -8 10 -10 10 -2
0 -7 -4 -10 -10z"/>
<path d="M1212 1429 c-12 -18 -11 -20 5 -17 10 2 19 11 21 21 5 23 -10 21 -26
-4z"/>
<path d="M390 1430 c0 -5 5 -10 10 -10 6 0 10 5 10 10 0 6 -4 10 -10 10 -5 0
-10 -4 -10 -10z"/>
<path d="M3590 1430 c0 -5 5 -10 10 -10 6 0 10 5 10 10 0 6 -4 10 -10 10 -5 0
-10 -4 -10 -10z"/>
<path d="M61 1398 c-1 -21 4 -38 9 -38 12 0 12 27 0 55 -7 16 -9 13 -9 -17z"/>
<path d="M420 1410 c-8 -5 -12 -12 -9 -15 4 -3 12 1 19 10 14 17 11 19 -10 5z"/>
<path d="M42 1390 c0 -14 2 -19 5 -12 2 6 2 18 0 25 -3 6 -5 1 -5 -13z"/>
<path d="M675 1390 c4 -6 11 -8 16 -5 14 9 11 15 -7 15 -8 0 -12 -5 -9 -10z"/>
<path d="M120 1360 c0 -5 5 -10 10 -10 6 0 10 5 10 10 0 6 -4 10 -10 10 -5 0
-10 -4 -10 -10z"/>
<path d="M691 1356 c-10 -12 -8 -13 8 -9 12 3 18 9 15 14 -7 12 -10 11 -23 -5z"/>
<path d="M1470 1366 c0 -11 48 -56 60 -56 7 0 1 9 -14 21 -14 11 -24 25 -21
30 4 5 -1 9 -9 9 -9 0 -16 -2 -16 -4z"/>
<path d="M340 1350 c0 -5 4 -10 9 -10 6 0 13 5 16 10 3 6 -1 10 -9 10 -9 0
-16 -4 -16 -10z"/>
<path d="M531 1344 c0 -11 3 -14 6 -6 3 7 2 16 -1 19 -3 4 -6 -2 -5 -13z"/>
<path d="M143 1337 c-13 -5 -23 -14 -23 -19 0 -4 -6 -8 -14 -8 -16 0 -28 -37
-15 -46 5 -3 9 -1 9 4 0 15 46 60 66 64 10 2 15 6 9 9 -5 4 -20 2 -32 -4z"/>
<path d="M210 1331 c0 -12 -4 -21 -10 -21 -5 0 -10 -4 -10 -9 0 -5 9 -7 20 -4
11 3 20 9 20 14 0 5 12 7 28 3 l27 -6 -27 16 c-16 8 -32 18 -38 21 -5 3 -10
-3 -10 -14z"/>
<path d="M780 1330 c0 -5 5 -10 11 -10 5 0 7 5 4 10 -3 6 -8 10 -11 10 -2 0
-4 -4 -4 -10z"/>
<path d="M137 1288 c-8 -30 -5 -30 22 -2 22 23 22 24 3 24 -12 0 -22 -9 -25
-22z"/>
<path d="M285 1279 c-4 -6 -5 -13 -2 -16 7 -7 27 6 27 18 0 12 -17 12 -25 -2z"/>
<path d="M355 1280 c-3 -5 3 -10 14 -10 11 0 23 5 26 10 3 6 -3 10 -14 10 -11
0 -23 -4 -26 -10z"/>
<path d="M0 1250 c0 -5 5 -10 10 -10 6 0 10 5 10 10 0 6 -4 10 -10 10 -5 0
-10 -4 -10 -10z"/>
<path d="M226 1250 c-3 -8 -2 -28 2 -45 8 -27 9 -28 16 -9 8 26 -9 77 -18 54z"/>
<path d="M398 1253 c7 -3 16 -2 19 1 4 3 -2 6 -13 5 -11 0 -14 -3 -6 -6z"/>
<path d="M250 1240 c0 -5 4 -10 9 -10 6 0 13 5 16 10 3 6 -1 10 -9 10 -9 0
-16 -4 -16 -10z"/>
<path d="M805 1240 c3 -5 12 -10 20 -10 8 0 17 5 20 10 4 6 -5 10 -20 10 -15
0 -24 -4 -20 -10z"/>
<path d="M1942 1226 c-9 -19 -8 -25 4 -30 34 -13 57 17 32 42 -17 17 -23 15
-36 -12z"/>
<path d="M363 1223 c1 -10 5 -22 9 -28 3 -5 4 -22 3 -37 -2 -17 1 -25 8 -22 7
2 12 25 12 54 0 41 -3 50 -17 50 -11 0 -17 -6 -15 -17z"/>
<path d="M406 1215 c-3 -8 -1 -15 4 -15 6 0 10 7 10 15 0 8 -2 15 -4 15 -2 0
-6 -7 -10 -15z"/>
<path d="M447 1217 c-3 -7 3 -13 14 -13 22 0 25 12 5 19 -8 3 -16 0 -19 -6z"/>
<path d="M1234 1218 c-5 -8 -2 -9 9 -5 9 3 19 2 22 -3 10 -16 25 -11 19 5 -7
18 -40 20 -50 3z"/>
<path d="M135 1210 c-3 -5 1 -10 9 -10 9 0 16 5 16 10 0 6 -4 10 -9 10 -6 0
-13 -4 -16 -10z"/>
<path d="M780 1209 c0 -5 5 -7 10 -4 6 3 10 8 10 11 0 2 -4 4 -10 4 -5 0 -10
-5 -10 -11z"/>
<path d="M830 1210 c-12 -8 -11 -10 8 -10 12 0 22 5 22 10 0 13 -11 13 -30 0z"/>
<path d="M1680 1204 c0 -8 5 -12 10 -9 6 3 10 10 10 16 0 5 -4 9 -10 9 -5 0
-10 -7 -10 -16z"/>
<path d="M190 1202 c0 -5 7 -9 15 -9 8 0 15 4 15 9 0 4 -7 8 -15 8 -8 0 -15
-4 -15 -8z"/>
<path d="M250 1179 c0 -5 5 -7 10 -4 6 3 10 8 10 11 0 2 -4 4 -10 4 -5 0 -10
-5 -10 -11z"/>
<path d="M652 1160 c0 -19 2 -27 5 -17 2 9 2 25 0 35 -3 9 -5 1 -5 -18z"/>
<path d="M20 1164 c0 -8 5 -12 10 -9 6 4 8 11 5 16 -9 14 -15 11 -15 -7z"/>
<path d="M168 1173 c7 -3 16 -2 19 1 4 3 -2 6 -13 5 -11 0 -14 -3 -6 -6z"/>
<path d="M290 1170 c0 -5 5 -10 10 -10 6 0 10 -7 10 -16 0 -8 5 -12 10 -9 15
9 12 19 -10 33 -12 7 -20 8 -20 2z"/>
<path d="M340 1169 c0 -5 5 -7 10 -4 6 3 10 8 10 11 0 2 -4 4 -10 4 -5 0 -10
-5 -10 -11z"/>
<path d="M531 1166 c-16 -19 -11 -29 8 -17 7 5 12 14 9 21 -3 9 -8 7 -17 -4z"/>
<path d="M205 1162 c-26 -5 -46 -22 -40 -32 3 -5 1 -11 -5 -15 -5 -3 -10 -1
-10 4 0 6 -4 11 -9 11 -4 0 -6 -11 -3 -25 2 -14 8 -25 13 -25 12 0 49 38 49
50 0 6 10 14 22 19 25 9 12 19 -17 13z"/>
<path d="M1010 1160 c0 -5 5 -10 11 -10 5 0 7 5 4 10 -3 6 -8 10 -11 10 -2 0
-4 -4 -4 -10z"/>
<path d="M1393 1134 c0 -23 1 -24 14 -11 9 8 12 20 9 26 -12 19 -23 12 -23
-15z"/>
<path d="M410 1136 c0 -17 14 -29 23 -20 8 8 -3 34 -14 34 -5 0 -9 -6 -9 -14z"/>
<path d="M473 1133 c-24 -5 -30 -18 -13 -28 6 -3 10 -1 10 4 0 6 7 11 15 11 8
0 15 5 15 10 0 6 -1 9 -2 9 -2 -1 -13 -4 -25 -6z"/>
<path d="M4 1115 c-7 -17 4 -37 16 -30 11 7 9 45 -2 45 -5 0 -11 -7 -14 -15z"/>
<path d="M342 1110 c0 -14 2 -19 5 -12 2 6 2 18 0 25 -3 6 -5 1 -5 -13z"/>
<path d="M250 1110 c13 -8 9 -13 -10 -12 -11 1 -4 -62 8 -65 7 -3 12 5 12 19
0 13 5 29 11 35 14 14 3 33 -19 33 -15 0 -15 -2 -2 -10z"/>
<path d="M1985 1110 c4 -6 11 -8 16 -5 14 9 11 15 -7 15 -8 0 -12 -5 -9 -10z"/>
<path d="M51 1077 c-6 -6 -11 -21 -11 -34 0 -13 -5 -23 -11 -23 -7 0 -9 9 -6
21 3 13 1 19 -6 16 -7 -2 -13 -13 -15 -25 -3 -18 2 -22 22 -22 16 0 26 -6 26
-14 0 -9 -7 -12 -20 -9 -14 4 -21 -1 -26 -21 -3 -14 -4 -31 -1 -38 3 -7 6 -3
6 9 1 13 10 24 24 29 12 4 30 12 41 20 17 12 17 13 -3 30 -24 21 -28 39 -7 31
11 -4 13 -1 9 10 -4 11 -2 14 5 9 7 -4 12 -3 12 2 0 15 -26 22 -39 9z"/>
<path d="M1440 1060 c0 -5 5 -10 11 -10 5 0 7 5 4 10 -3 6 -8 10 -11 10 -2 0
-4 -4 -4 -10z"/>
<path d="M120 1050 c0 -5 5 -10 11 -10 5 0 7 5 4 10 -3 6 -8 10 -11 10 -2 0
-4 -4 -4 -10z"/>
<path d="M330 1056 c0 -2 7 -7 16 -10 8 -3 12 -2 9 4 -6 10 -25 14 -25 6z"/>
<path d="M841 1044 c0 -11 3 -14 6 -6 3 7 2 16 -1 19 -3 4 -6 -2 -5 -13z"/>
<path d="M1471 1044 c0 -11 3 -14 6 -6 3 7 2 16 -1 19 -3 4 -6 -2 -5 -13z"/>
<path d="M2860 1051 c0 -6 5 -13 10 -16 6 -3 10 1 10 9 0 9 -4 16 -10 16 -5 0
-10 -4 -10 -9z"/>
<path d="M420 1037 c0 -9 10 -12 30 -9 35 5 30 22 -6 22 -13 0 -24 -6 -24 -13z"/>
<path d="M497 1043 c-10 -10 -8 -33 2 -33 6 0 9 9 8 20 -1 23 -1 22 -10 13z"/>
<path d="M160 1020 c-12 -8 -9 -10 13 -10 16 0 26 4 22 10 -8 12 -16 12 -35 0z"/>
<path d="M290 1020 c0 -5 5 -10 11 -10 5 0 7 5 4 10 -3 6 -8 10 -11 10 -2 0
-4 -4 -4 -10z"/>
<path d="M221 1004 c6 -7 17 -10 25 -7 23 8 16 21 -11 21 -20 0 -23 -3 -14
-14z"/>
<path d="M1626 996 c10 -8 21 -12 24 -10 5 6 -21 24 -34 24 -6 0 -1 -6 10 -14z"/>
<path d="M336 985 c21 -16 44 -19 44 -6 0 10 -24 21 -48 21 -13 0 -12 -3 4
-15z"/>
<path d="M518 982 c-16 -2 -28 -8 -28 -14 0 -5 6 -8 14 -5 11 4 16 -3 18 -23
2 -22 7 -27 16 -21 8 5 12 21 10 37 -3 25 -7 29 -30 26z"/>
<path d="M2588 973 c7 -3 16 -2 19 1 4 3 -2 6 -13 5 -11 0 -14 -3 -6 -6z"/>
<path d="M1256 955 c-3 -8 -1 -15 4 -15 13 0 22 18 11 24 -5 3 -11 -1 -15 -9z"/>
<path d="M346 951 c-3 -4 2 -15 12 -23 27 -23 42 -30 42 -19 0 5 -9 12 -19 16
-12 4 -18 12 -14 21 6 15 -12 20 -21 5z"/>
<path d="M1695 940 c3 -5 13 -10 21 -10 8 0 14 5 14 10 0 6 -9 10 -21 10 -11
0 -17 -4 -14 -10z"/>
<path d="M466 924 c-19 -18 -18 -15 -21 -76 -1 -27 1 -48 6 -48 5 0 9 13 9 30
0 22 4 28 15 24 8 -4 12 -10 9 -15 -3 -5 0 -9 5 -9 14 0 14 16 0 41 -5 11 -15
16 -21 13 -7 -4 -8 -3 -4 4 4 7 14 12 22 12 15 0 19 26 5 35 -5 3 -17 -2 -25
-11z"/>
<path d="M1150 928 c0 -14 59 -48 82 -47 l23 0 -25 11 c-14 6 -29 10 -34 9 -5
-1 -6 6 -4 16 4 14 -1 18 -19 18 -12 0 -23 -3 -23 -7z"/>
<path d="M1313 926 c-26 -12 -30 -26 -8 -26 8 0 15 5 15 11 0 6 7 9 15 6 8 -4
17 -2 20 2 8 14 -18 18 -42 7z"/>
<path d="M961 914 c0 -11 3 -14 6 -6 3 7 2 16 -1 19 -3 4 -6 -2 -5 -13z"/>
<path d="M220 895 c0 -14 -4 -25 -10 -25 -5 0 -10 5 -10 11 0 5 -14 2 -31 -8
-27 -16 -32 -16 -42 -3 -19 25 -65 19 -70 -7 -5 -28 1 -29 19 -5 13 16 15 15
33 -8 11 -14 28 -25 38 -25 12 0 17 -6 15 -19 -2 -11 1 -16 10 -14 7 3 12 13
10 22 -2 9 2 24 7 34 9 15 10 13 11 -9 0 -32 19 -39 80 -29 25 4 38 8 30 9
-11 2 -9 5 5 11 11 5 14 9 8 9 -7 1 -13 6 -13 12 0 5 4 8 9 4 5 -3 12 -1 16 5
4 6 -5 10 -20 10 -16 0 -24 4 -20 11 5 7 -5 8 -32 3 -31 -5 -36 -4 -25 7 16
17 15 29 -3 29 -9 0 -15 -9 -15 -25z"/>
<path d="M101 906 c2 -2 18 -6 34 -10 22 -5 26 -4 15 4 -14 9 -59 15 -49 6z"/>
<path d="M410 900 c0 -5 5 -10 11 -10 5 0 7 5 4 10 -3 6 -8 10 -11 10 -2 0 -4
-4 -4 -10z"/>
<path d="M1331 878 c0 -16 2 -18 6 -8 3 8 11 18 17 22 7 5 4 8 -6 8 -12 0 -18
-7 -17 -22z"/>
<path d="M26 875 c4 -8 10 -12 15 -9 14 8 10 24 -6 24 -9 0 -12 -6 -9 -15z"/>
<path d="M1135 869 c-11 -17 1 -21 15 -4 8 9 8 15 2 15 -6 0 -14 -5 -17 -11z"/>
<path d="M863 854 c-8 -22 2 -27 27 -14 23 12 20 22 -6 26 -8 1 -18 -4 -21
-12z"/>
<path d="M3606 862 c-2 -4 -1 -14 5 -22 7 -12 9 -10 9 8 0 23 -5 28 -14 14z"/>
<path d="M542 848 c-16 -16 -15 -28 2 -28 8 0 21 -6 28 -13 14 -15 53 -37 63
-37 3 0 -2 11 -10 24 -10 15 -12 25 -5 28 6 2 1 11 -11 21 -20 18 -21 18 -14
-2 5 -15 2 -21 -9 -21 -9 0 -16 9 -16 20 0 23 -10 26 -28 8z"/>
<path d="M2060 846 c0 -9 5 -16 10 -16 6 0 10 4 10 9 0 6 -4 13 -10 16 -5 3
-10 -1 -10 -9z"/>
<path d="M18 843 c7 -3 16 -2 19 1 4 3 -2 6 -13 5 -11 0 -14 -3 -6 -6z"/>
<path d="M356 836 c3 -9 11 -16 16 -16 13 0 5 23 -10 28 -7 2 -10 -2 -6 -12z"/>
<path d="M797 827 c-3 -9 -2 -17 2 -17 18 0 41 12 41 22 0 6 -6 6 -14 -1 -11
-9 -15 -9 -18 1 -3 8 -7 6 -11 -5z"/>
<path d="M890 820 c0 -6 7 -13 15 -17 24 -9 27 1 5 15 -13 8 -20 8 -20 2z"/>
<path d="M80 818 c0 -3 5 -19 11 -37 11 -32 24 -40 32 -18 3 6 6 -2 6 -20 1
-17 6 -35 13 -39 8 -5 6 -10 -8 -15 -13 -5 -8 -7 16 -4 19 1 34 8 32 14 -3 14
45 15 53 1 3 -5 1 -10 -6 -10 -7 0 -10 -3 -6 -6 3 -3 14 -1 24 5 16 9 15 12
-14 23 -18 7 -33 18 -33 25 0 19 -18 16 -22 -4 -2 -10 -9 3 -16 30 -9 35 -17
47 -31 47 -11 0 -26 3 -35 6 -9 3 -16 4 -16 2z"/>
<path d="M372 785 c0 -16 2 -22 5 -12 2 9 2 23 0 30 -3 6 -5 -1 -5 -18z"/>
<path d="M1170 794 c0 -8 5 -12 10 -9 6 3 10 10 10 16 0 5 -4 9 -10 9 -5 0
-10 -7 -10 -16z"/>
<path d="M40 790 c0 -5 5 -10 10 -10 6 0 10 5 10 10 0 6 -4 10 -10 10 -5 0
-10 -4 -10 -10z"/>
<path d="M325 780 c10 -11 20 -20 22 -20 1 0 3 9 3 20 0 14 -7 20 -22 20 -20
0 -21 -1 -3 -20z"/>
<path d="M71 774 c0 -11 3 -14 6 -6 3 7 2 16 -1 19 -3 4 -6 -2 -5 -13z"/>
<path d="M0 750 c0 -16 5 -30 10 -30 6 0 10 5 10 11 0 6 9 8 20 4 25 -8 25 -1
3 25 -25 29 -43 25 -43 -10z"/>
<path d="M230 768 c0 -6 3 -9 6 -5 4 3 13 0 21 -8 20 -21 54 -20 46 1 -5 13
-7 13 -15 2 -7 -10 -11 -10 -22 5 -15 19 -36 23 -36 5z"/>
<path d="M215 740 c3 -5 14 -10 23 -10 15 0 15 2 2 10 -20 13 -33 13 -25 0z"/>
<path d="M465 730 c3 -5 8 -10 11 -10 2 0 4 5 4 10 0 6 -5 10 -11 10 -5 0 -7
-4 -4 -10z"/>
<path d="M80 715 c0 -8 9 -15 20 -15 11 0 20 7 20 15 0 8 -9 15 -20 15 -11 0
-20 -7 -20 -15z"/>
<path d="M260 722 c0 -5 9 -12 20 -15 11 -3 20 -13 21 -24 0 -14 2 -13 10 6
11 28 12 27 -24 36 -16 4 -27 3 -27 -3z"/>
<path d="M341 723 c0 -6 -4 -20 -7 -30 -5 -14 -4 -15 5 -7 7 7 11 20 8 30 -3
11 -5 14 -6 7z"/>
<path d="M700 721 c0 -8 -8 -10 -22 -6 -21 5 -21 5 -5 -5 10 -7 21 -9 24 -6 4
3 12 1 20 -5 8 -7 13 -8 13 -1 0 5 -7 15 -15 22 -11 9 -15 10 -15 1z"/>
<path d="M1100 719 c0 -5 5 -7 10 -4 6 3 10 8 10 11 0 2 -4 4 -10 4 -5 0 -10
-5 -10 -11z"/>
<path d="M1377 706 c-15 -23 -16 -26 -2 -26 17 0 29 22 23 41 -2 6 -12 0 -21
-15z"/>
<path d="M11 707 c-12 -15 -12 -127 1 -127 4 0 8 8 8 19 0 30 37 33 67 5 18
-16 33 -22 48 -18 13 3 26 1 29 -4 3 -6 -2 -8 -13 -5 -13 3 -20 -2 -26 -19 -6
-20 -8 -20 -12 -5 -3 12 -11 16 -23 12 -12 -4 -22 1 -29 12 -11 17 -12 17 -26
-1 -19 -25 -12 -34 25 -28 23 3 30 1 30 -13 0 -12 5 -15 23 -9 12 3 29 12 37
19 18 17 50 2 50 -22 0 -13 -3 -14 -12 -5 -22 22 -45 13 -63 -24 -9 -20 -14
-38 -11 -42 4 -3 27 -1 51 6 40 11 48 10 77 -8 l33 -21 -30 7 c-16 3 -37 8
-46 10 -9 3 -23 -1 -31 -9 -7 -7 -19 -12 -25 -10 -7 3 -20 -1 -30 -7 -16 -10
-15 -10 5 -5 18 5 22 2 22 -15 0 -12 4 -18 10 -15 6 4 8 10 5 14 -2 4 8 8 22
7 14 -1 28 -7 31 -14 2 -7 -2 -10 -12 -6 -12 4 -16 0 -16 -15 0 -12 5 -21 11
-21 14 0 39 26 40 42 0 7 5 2 10 -11 7 -18 6 -27 -3 -33 -7 -4 -9 -8 -5 -8 4
0 3 -9 -3 -20 -13 -25 5 -28 18 -3 9 15 11 15 26 1 37 -37 10 -69 -49 -59
l-40 7 43 7 c27 5 42 12 42 22 0 20 -17 19 -29 -2 -8 -14 -12 -15 -25 -4 -14
12 -19 11 -36 -4 -27 -24 -25 -7 2 22 12 13 17 23 11 23 -6 0 -16 -6 -23 -14
-6 -8 -18 -12 -26 -9 -7 3 -16 -2 -20 -10 -3 -9 -12 -13 -21 -10 -13 5 -12 8
6 15 23 8 25 28 3 36 -7 2 -12 -5 -13 -15 0 -10 -3 -13 -6 -5 -2 6 -11 12 -19
12 -8 0 -14 7 -14 15 0 8 5 15 11 15 7 0 9 10 5 24 -3 14 -2 28 4 31 15 9 12
25 -5 25 -17 0 -20 16 -5 25 5 3 10 1 10 -6 0 -7 3 -9 6 -6 4 4 2 12 -4 20 -6
7 -9 23 -5 35 3 13 1 22 -6 22 -6 0 -11 -7 -11 -15 0 -8 -6 -15 -14 -15 -8 0
-16 7 -20 15 -9 24 -26 18 -26 -9 0 -18 7 -26 23 -29 l22 -4 -22 -2 c-33 -2
-29 -29 5 -34 l27 -4 -27 -2 c-24 -1 -28 -5 -28 -30 0 -43 9 -61 28 -53 15 5
15 4 3 -11 -7 -9 -17 -14 -22 -11 -5 3 -9 -6 -9 -20 0 -14 4 -26 8 -26 4 0 8
-9 9 -20 1 -11 -2 -20 -8 -20 -5 0 -9 -50 -9 -114 0 -92 3 -115 15 -120 14 -5
19 6 18 42 -1 6 3 12 7 12 12 0 20 -29 10 -35 -23 -14 -7 -25 35 -25 25 0 45
5 45 10 0 6 5 10 11 10 5 0 8 -4 5 -9 -3 -5 37 -9 90 -10 74 -1 95 1 92 11 -3
7 -15 12 -28 10 -30 -5 -17 14 14 20 17 4 23 1 19 -9 -3 -7 0 -13 7 -13 6 0 8
-5 4 -11 -4 -7 -1 -10 7 -7 8 3 13 12 11 22 -2 9 2 16 8 16 5 0 10 -9 10 -20
0 -16 6 -20 29 -18 16 1 27 6 24 11 -3 5 1 13 8 18 11 8 10 13 -6 27 -27 22
-40 53 -20 45 8 -3 12 -9 9 -14 -7 -12 19 -12 32 1 5 5 15 6 22 1 11 -6 10
-11 -3 -25 -10 -9 -15 -20 -12 -23 4 -3 2 -14 -4 -24 -8 -16 -6 -19 15 -19 19
0 27 7 32 25 4 14 11 24 18 22 13 -4 41 21 32 31 -4 3 -16 0 -28 -7 -19 -12
-20 -11 -14 13 5 21 3 26 -11 26 -15 0 -16 2 -3 10 8 5 17 5 20 1 8 -13 39 -9
45 7 7 19 -3 32 -20 25 -8 -3 -15 0 -15 6 0 6 -9 11 -20 11 -11 0 -23 7 -26
15 -5 11 -16 13 -46 9 -34 -6 -40 -4 -45 15 -6 23 -18 27 -28 11 -7 -11 -25
-4 -25 10 0 14 64 24 68 11 3 -9 8 -9 17 -1 7 6 17 10 21 9 5 -1 18 -1 29 0
14 1 16 4 8 12 -6 6 -9 17 -7 24 6 15 -35 25 -62 14 -15 -6 -12 -8 14 -8 55
-1 35 -16 -24 -17 -54 -2 -55 -1 -50 22 4 14 2 24 -4 24 -5 0 -10 -4 -10 -10
0 -5 -5 -10 -11 -10 -6 0 -9 7 -5 15 3 8 -2 18 -10 23 -21 12 -7 39 19 37 13
-1 15 0 4 2 -9 2 -15 9 -12 14 4 5 17 6 30 3 26 -6 43 11 20 20 -23 8 -18 28
5 21 20 -6 55 17 43 29 -12 11 -52 6 -60 -8 -4 -7 -22 -17 -40 -20 -26 -6 -34
-4 -43 14 -6 12 -9 29 -6 38 5 15 4 14 -8 -1 -11 -15 -15 -15 -19 -3 -8 20 18
39 41 32 10 -4 34 0 53 8 19 9 26 15 17 16 -19 0 -26 20 -8 20 6 0 10 11 10
25 0 17 6 25 17 25 13 0 14 3 5 12 -18 18 -14 31 7 25 14 -3 17 0 13 15 -2 10
-7 16 -10 13 -3 -2 -11 0 -19 6 -10 9 -13 7 -13 -10 0 -16 -6 -21 -24 -21 -36
0 -40 -15 -11 -46 29 -31 31 -39 10 -30 -11 4 -15 -1 -15 -19 0 -16 -6 -25
-16 -25 -10 0 -14 6 -11 14 4 9 -3 16 -15 20 -26 6 -41 -2 -34 -19 5 -14 -20
-42 -30 -33 -3 3 -2 17 1 31 7 26 34 40 74 37 15 -1 22 3 19 12 -3 7 -16 12
-32 10 -17 -2 -29 3 -32 13 -9 22 2 30 20 16 10 -8 16 -9 21 -1 3 5 -1 10 -9
10 -9 0 -16 4 -16 9 0 15 -58 32 -66 19 -4 -6 1 -15 10 -20 24 -13 21 -58 -3
-58 -11 0 -23 5 -26 10 -3 6 1 10 9 10 9 0 16 5 16 10 0 6 -7 10 -15 10 -8 0
-15 6 -15 14 0 20 -27 27 -40 11 -10 -13 -16 -12 -40 0 -15 8 -31 26 -34 40
-7 27 -27 33 -45 12z m23 -46 c3 -5 -1 -14 -9 -21 -13 -10 -15 -9 -15 9 0 21
14 28 24 12z m326 -31 c0 -5 -4 -10 -10 -10 -5 0 -10 5 -10 10 0 6 5 10 10 10
6 0 10 -4 10 -10z m-205 -10 c3 -5 1 -10 -4 -10 -6 0 -11 5 -11 10 0 6 2 10 4
10 3 0 8 -4 11 -10z m5 -129 c0 -5 -7 -11 -14 -14 -10 -4 -13 -1 -9 9 6 15 23
19 23 5z m55 -1 c-3 -5 -14 -10 -23 -10 -15 0 -15 2 -2 10 20 13 33 13 25 0z
m130 -70 c3 -5 1 -10 -4 -10 -6 0 -11 5 -11 10 0 6 2 10 4 10 3 0 8 -4 11 -10z
m-35 -19 c0 -13 -29 -41 -41 -41 -6 0 -2 11 8 25 19 25 33 32 33 16z m-260
-91 c0 -5 -9 -10 -21 -10 -11 0 -17 5 -14 10 3 6 13 10 21 10 8 0 14 -4 14
-10z m25 -38 c-1 -21 -4 -43 -7 -48 -4 -5 -9 -26 -13 -47 -8 -42 -28 -52 -21
-9 2 15 5 27 6 27 5 0 18 71 19 103 1 13 5 21 10 18 4 -3 7 -23 6 -44z m85
-23 c0 -5 -4 -9 -10 -9 -5 0 -10 7 -10 16 0 8 5 12 10 9 6 -3 10 -10 10 -16z
m98 -25 c2 -15 1 -16 -6 -5 -6 8 -17 11 -27 7 -15 -5 -16 -4 -5 9 16 20 34 14
38 -11z m-138 -4 c-13 -8 -12 -10 3 -10 9 0 17 -4 17 -10 0 -5 -13 -10 -29
-10 -24 0 -28 3 -24 20 3 12 14 20 27 20 17 0 18 -2 6 -10z m203 -15 c-3 -8
-10 -15 -15 -15 -7 0 -6 5 1 13 6 8 7 18 3 22 -4 5 -2 5 5 1 7 -4 10 -13 6
-21z m-73 -11 c0 -2 -7 -4 -15 -4 -8 0 -15 4 -15 10 0 5 7 7 15 4 8 -4 15 -8
15 -10z m-60 -8 c0 -15 -38 -29 -53 -19 -5 3 2 11 15 18 31 17 38 18 38 1z
m-71 -33 c0 -25 -1 -26 -9 -8 -12 27 -12 35 0 35 6 0 10 -12 9 -27z m211 13
c0 -8 -11 -11 -30 -8 -43 6 -45 18 -4 19 21 1 34 -4 34 -11z m190 -17 c0 -13
-39 -17 -49 -5 -8 10 -3 13 19 13 17 0 30 -4 30 -8z m-160 -13 c0 -3 -4 -8
-10 -11 -5 -3 -10 -1 -10 4 0 6 5 11 10 11 6 0 10 -2 10 -4z m-110 -46 c0 -5
-2 -10 -4 -10 -3 0 -8 5 -11 10 -3 6 -1 10 4 10 6 0 11 -4 11 -10z m-70 -10
c0 -5 -5 -10 -11 -10 -5 0 -7 5 -4 10 3 6 8 10 11 10 2 0 4 -4 4 -10z m-27
-30 c3 -11 1 -20 -4 -20 -5 0 -9 2 -9 4 0 2 -3 11 -6 20 -3 9 -2 16 4 16 5 0
12 -9 15 -20z m42 -10 c-3 -5 -11 -10 -16 -10 -6 0 -7 5 -4 10 3 6 11 10 16
10 6 0 7 -4 4 -10z m-75 -14 c0 -9 -30 -14 -35 -6 -4 6 3 10 14 10 12 0 21 -2
21 -4z"/>
<path d="M610 700 c-6 -10 -16 -17 -24 -14 -8 3 -16 -3 -19 -15 -3 -12 -2 -20
1 -18 4 2 24 11 45 21 31 14 36 20 26 32 -15 18 -16 18 -29 -6z"/>
<path d="M442 694 c-11 -8 -12 -13 -3 -18 7 -5 21 0 32 10 11 10 19 12 19 6 0
-7 4 -12 10 -12 5 0 7 6 4 14 -6 17 -39 17 -62 0z"/>
<path d="M1131 694 c0 -11 3 -14 6 -6 3 7 2 16 -1 19 -3 4 -6 -2 -5 -13z"/>
<path d="M1072 689 c2 -6 8 -10 13 -10 5 0 11 4 13 10 2 6 -4 11 -13 11 -9 0
-15 -5 -13 -11z"/>
<path d="M525 680 c3 -5 8 -10 11 -10 2 0 4 5 4 10 0 6 -5 10 -11 10 -5 0 -7
-4 -4 -10z"/>
<path d="M960 680 c0 -6 7 -10 15 -10 8 0 15 2 15 4 0 2 -7 6 -15 10 -8 3 -15
1 -15 -4z"/>
<path d="M668 673 c7 -3 16 -2 19 1 4 3 -2 6 -13 5 -11 0 -14 -3 -6 -6z"/>
<path d="M941 663 c-1 -6 -4 -20 -7 -30 -5 -17 -5 -17 6 0 6 10 9 23 6 30 -3
9 -5 9 -5 0z"/>
<path d="M1356 662 c-3 -5 1 -9 9 -9 8 0 15 4 15 9 0 4 -4 8 -9 8 -6 0 -12 -4
-15 -8z"/>
<path d="M488 611 c3 -28 9 -41 23 -44 10 -3 19 -1 19 4 0 5 -4 9 -9 9 -5 0
-12 16 -15 35 -9 48 -22 44 -18 -4z"/>
<path d="M816 634 c-5 -13 -15 -15 -46 -11 -35 4 -50 -4 -50 -28 0 -2 21 -2
46 0 50 3 86 27 67 46 -7 7 -12 5 -17 -7z"/>
<path d="M1344 626 c23 -18 36 -20 36 -6 0 6 -4 10 -9 10 -5 0 -18 3 -28 6
-16 5 -16 4 1 -10z"/>
<path d="M414 614 c3 -9 6 -18 6 -20 0 -2 8 -4 18 -4 16 1 16 1 0 14 -10 7
-15 16 -11 19 3 4 1 7 -6 7 -8 0 -11 -6 -7 -16z"/>
<path d="M620 608 c0 -14 7 -18 38 -17 23 1 28 3 15 6 -13 2 -23 10 -23 17 0
7 -7 13 -15 13 -8 0 -15 -9 -15 -19z"/>
<path d="M841 606 c-19 -35 -3 -57 27 -37 12 7 12 13 0 35 l-14 27 -13 -25z"/>
<path d="M1070 620 c0 -5 -6 -10 -12 -10 -7 0 -24 -10 -38 -21 -20 -17 -21
-20 -5 -14 11 4 28 10 38 12 9 3 17 9 17 14 0 5 7 9 16 9 8 0 12 5 9 10 -3 6
-10 10 -16 10 -5 0 -9 -4 -9 -10z"/>
<path d="M1840 614 c0 -8 5 -12 10 -9 6 3 10 10 10 16 0 5 -4 9 -10 9 -5 0
-10 -7 -10 -16z"/>
<path d="M930 585 c-13 -33 -13 -38 1 -30 6 4 13 -2 16 -14 6 -25 19 -27 39
-7 20 20 17 28 -6 21 -16 -5 -20 -2 -20 19 0 35 -18 42 -30 11z"/>
<path d="M1190 600 c-12 -8 -10 -10 8 -10 13 0 20 4 17 10 -7 12 -6 12 -25 0z"/>
<path d="M396 581 c-4 -7 -5 -15 -2 -18 9 -9 19 4 14 18 -4 11 -6 11 -12 0z"/>
<path d="M728 573 c6 -2 18 -2 25 0 6 3 1 5 -13 5 -14 0 -19 -2 -12 -5z"/>
<path d="M421 543 c0 -16 4 -37 8 -48 6 -14 8 -5 7 27 0 27 -4 48 -8 48 -5 0
-8 -12 -7 -27z"/>
<path d="M461 554 c0 -11 3 -14 6 -6 3 7 2 16 -1 19 -3 4 -6 -2 -5 -13z"/>
<path d="M660 565 c0 -13 39 -47 48 -41 5 3 12 -3 15 -14 7 -28 27 -25 27 5 0
20 -5 25 -25 25 -16 0 -25 6 -25 15 0 8 -9 15 -20 15 -11 0 -20 -2 -20 -5z"/>
<path d="M1330 559 c0 -5 5 -7 10 -4 6 3 10 8 10 11 0 2 -4 4 -10 4 -5 0 -10
-5 -10 -11z"/>
<path d="M880 551 c0 -6 4 -13 10 -16 6 -3 7 1 4 9 -7 18 -14 21 -14 7z"/>
<path d="M530 534 c0 -8 5 -12 10 -9 6 4 8 11 5 16 -9 14 -15 11 -15 -7z"/>
<path d="M480 533 c0 -5 5 -15 10 -23 8 -12 10 -11 10 8 0 12 -4 22 -10 22 -5
0 -10 -3 -10 -7z"/>
<path d="M590 530 c0 -5 5 -10 10 -10 6 0 10 5 10 10 0 6 -4 10 -10 10 -5 0
-10 -4 -10 -10z"/>
<path d="M630 529 c0 -5 5 -7 10 -4 6 3 10 8 10 11 0 2 -4 4 -10 4 -5 0 -10
-5 -10 -11z"/>
<path d="M790 516 c0 -8 -6 -17 -12 -19 -7 -3 -3 -6 10 -6 22 -1 31 22 12 34
-5 3 -10 0 -10 -9z"/>
<path d="M1310 520 c20 -13 33 -13 25 0 -3 6 -14 10 -23 10 -15 0 -15 -2 -2
-10z"/>
<path d="M366 501 c-4 -5 3 -7 14 -4 23 6 26 13 6 13 -8 0 -17 -4 -20 -9z"/>
<path d="M529 503 c-2 -22 -8 -51 -15 -72 -6 -19 -4 -22 6 -16 8 5 27 9 44 9
17 1 31 7 34 16 4 13 3 13 -11 2 -25 -21 -40 -5 -32 34 5 27 3 34 -10 34 -8 0
-15 -3 -16 -7z"/>
<path d="M605 500 c3 -5 8 -10 11 -10 2 0 4 5 4 10 0 6 -5 10 -11 10 -5 0 -7
-4 -4 -10z"/>
<path d="M697 503 c-10 -9 -9 -23 1 -23 5 0 9 7 9 15 0 17 -1 18 -10 8z"/>
<path d="M926 473 c8 -48 10 -49 24 -24 7 14 7 21 0 21 -5 0 -10 6 -10 14 0 8
-5 18 -11 21 -7 5 -8 -5 -3 -32z"/>
<path d="M1030 495 c0 -8 -5 -15 -11 -15 -8 0 -8 -5 1 -15 7 -8 18 -15 24 -14
7 0 6 2 -1 6 -8 3 -11 14 -7 29 3 13 3 24 0 24 -3 0 -6 -7 -6 -15z"/>
<path d="M1803 495 c-8 -8 -9 -16 -3 -20 5 -3 14 4 20 15 12 23 1 26 -17 5z"/>
<path d="M80 489 c0 -5 5 -7 10 -4 6 3 10 8 10 11 0 2 -4 4 -10 4 -5 0 -10 -5
-10 -11z"/>
<path d="M309 497 c-1 -1 -3 -12 -4 -25 -2 -17 2 -22 12 -18 8 3 17 6 19 6 11
0 2 29 -11 34 -8 3 -16 4 -16 3z"/>
<path d="M850 492 c0 -6 -11 -14 -25 -18 -26 -7 -33 -20 -13 -26 7 -3 8 -10 4
-17 -7 -11 -10 -11 -18 0 -6 10 -7 7 -3 -8 4 -14 2 -23 -4 -23 -6 0 -11 -4
-11 -10 0 -5 7 -7 15 -4 8 4 15 13 15 21 0 10 7 14 20 10 11 -3 18 -2 15 3 -3
4 0 22 6 39 6 18 9 35 5 38 -3 4 -6 1 -6 -5z"/>
<path d="M1155 490 c-3 -5 -1 -10 4 -10 6 0 11 5 11 10 0 6 -2 10 -4 10 -3 0
-8 -4 -11 -10z"/>
<path d="M1225 490 c-3 -5 1 -10 9 -10 9 0 16 5 16 10 0 6 -4 10 -9 10 -6 0
-13 -4 -16 -10z"/>
<path d="M1050 481 c0 -17 18 -21 24 -6 3 9 0 15 -9 15 -8 0 -15 -4 -15 -9z"/>
<path d="M901 464 c0 -11 3 -14 6 -6 3 7 2 16 -1 19 -3 4 -6 -2 -5 -13z"/>
<path d="M1084 466 c-6 -16 21 -49 47 -59 13 -4 18 2 21 24 3 16 1 29 -3 29
-4 0 -9 -9 -11 -20 -2 -15 -6 -17 -18 -9 -11 8 -12 12 -2 16 6 2 12 12 12 21
0 15 -2 15 -10 2 -6 -10 -10 -11 -10 -2 0 17 -19 15 -26 -2z"/>
<path d="M478 463 c7 -3 16 -2 19 1 4 3 -2 6 -13 5 -11 0 -14 -3 -6 -6z"/>
<path d="M661 462 c1 -16 18 -46 18 -34 1 9 8 11 23 6 20 -6 21 -5 10 8 -13
16 -53 31 -51 20z"/>
<path d="M720 463 c0 -5 4 -14 9 -22 7 -11 13 -9 30 8 l21 21 -30 0 c-16 0
-30 -3 -30 -7z"/>
<path d="M980 447 c9 -7 14 -20 12 -31 -4 -20 13 -36 40 -36 12 0 15 5 11 15
-3 9 2 22 13 30 11 8 15 15 10 15 -5 0 -18 -7 -27 -16 -17 -16 -19 -15 -28 10
-6 15 -18 26 -28 26 -16 -1 -16 -2 -3 -13z"/>
<path d="M440 430 c0 -5 5 -10 11 -10 5 0 7 5 4 10 -3 6 -8 10 -11 10 -2 0 -4
-4 -4 -10z"/>
<path d="M1218 433 c7 -3 16 -2 19 1 4 3 -2 6 -13 5 -11 0 -14 -3 -6 -6z"/>
<path d="M637 414 c4 -10 0 -12 -11 -8 -22 8 -20 -2 4 -26 11 -11 20 -27 20
-35 0 -8 5 -15 11 -15 7 0 9 9 5 23 -3 12 -6 32 -6 43 0 12 -7 24 -14 27 -10
4 -13 1 -9 -9z"/>
<path d="M2040 422 c0 -5 7 -15 15 -22 8 -7 15 -9 15 -6 0 4 -7 14 -15 22 -8
9 -15 11 -15 6z"/>
<path d="M405 410 c-3 -5 1 -10 9 -10 9 0 16 5 16 10 0 6 -4 10 -9 10 -6 0
-13 -4 -16 -10z"/>
<path d="M1077 413 c-4 -3 -7 -14 -7 -23 0 -9 -10 -22 -22 -28 -23 -10 -23
-11 5 -11 15 -1 28 5 28 12 1 6 3 22 4 35 2 24 2 25 -8 15z"/>
<path d="M460 400 c0 -5 12 -10 28 -9 24 0 25 1 7 9 -27 12 -35 12 -35 0z"/>
<path d="M679 400 c-4 -8 -4 -21 -2 -27 6 -16 33 -17 33 -2 0 5 4 7 10 4 6 -4
7 1 3 11 -5 15 -7 14 -16 -2 -10 -18 -11 -17 -17 6 -4 18 -8 21 -11 10z"/>
<path d="M101 384 c0 -11 3 -14 6 -6 3 7 2 16 -1 19 -3 4 -6 -2 -5 -13z"/>
<path d="M934 364 c-1 -17 2 -21 15 -16 9 3 19 10 22 15 4 5 12 6 19 2 9 -6 9
-9 -1 -16 -11 -7 -10 -9 4 -9 11 0 17 8 17 22 0 12 -2 19 -6 16 -3 -3 -19 -2
-37 2 -28 6 -32 4 -33 -16z"/>
<path d="M1875 380 c-3 -5 -2 -10 4 -10 5 0 13 5 16 10 3 6 2 10 -4 10 -5 0
-13 -4 -16 -10z"/>
<path d="M2750 380 c0 -5 5 -10 10 -10 6 0 10 5 10 10 0 6 -4 10 -10 10 -5 0
-10 -4 -10 -10z"/>
<path d="M379 373 c0 -4 -2 -15 -4 -24 -6 -32 9 -41 51 -30 25 7 40 7 42 1 5
-14 49 -12 55 3 4 9 8 9 15 -2 6 -8 12 -9 16 -3 8 14 -28 25 -56 17 -18 -5
-20 -4 -8 4 11 8 5 9 -22 6 -22 -3 -38 -1 -38 5 0 13 97 13 105 0 9 -15 25
-12 25 4 0 8 -8 15 -17 15 -10 0 -51 3 -90 6 -40 3 -73 2 -74 -2z"/>
<path d="M570 369 c0 -5 5 -7 10 -4 6 3 10 8 10 11 0 2 -4 4 -10 4 -5 0 -10
-5 -10 -11z"/>
<path d="M1828 356 c-29 -10 -38 -26 -15 -26 14 1 53 28 46 33 -2 2 -16 -1
-31 -7z"/>
<path d="M140 348 c0 -4 7 -8 15 -8 8 0 15 4 15 8 0 5 -7 9 -15 9 -8 0 -15 -4
-15 -9z"/>
<path d="M625 350 c-3 -5 -1 -10 4 -10 6 0 11 5 11 10 0 6 -2 10 -4 10 -3 0
-8 -4 -11 -10z"/>
<path d="M810 351 c0 -5 -10 -7 -22 -3 -14 3 -19 2 -14 -6 10 -17 43 -15 50 3
3 8 1 15 -4 15 -6 0 -10 -4 -10 -9z"/>
<path d="M2518 342 c-4 -15 -1 -18 19 -14 13 2 23 5 21 6 -2 1 -10 7 -19 14
-14 10 -17 9 -21 -6z"/>
<path d="M720 340 c0 -5 9 -10 20 -10 11 0 20 5 20 10 0 6 -9 10 -20 10 -11 0
-20 -4 -20 -10z"/>
<path d="M890 333 c0 -5 5 -15 10 -23 7 -12 9 -10 7 8 -1 19 -17 33 -17 15z"/>
<path d="M1046 328 c3 -5 15 -6 26 -2 17 5 20 3 15 -10 -4 -9 -2 -16 3 -16 6
0 10 5 10 10 0 15 21 12 42 -7 16 -14 18 -14 18 0 0 9 -14 20 -32 26 -40 12
-90 12 -82 -1z"/>
<path d="M700 311 c0 -16 41 -24 54 -11 8 8 7 10 -5 5 -10 -4 -20 -2 -24 4 -8
13 -25 14 -25 2z"/>
<path d="M560 302 c0 -12 19 -26 26 -19 2 2 -2 10 -11 17 -9 8 -15 8 -15 2z"/>
<path d="M1055 300 c3 -5 8 -10 11 -10 2 0 4 5 4 10 0 6 -5 10 -11 10 -5 0 -7
-4 -4 -10z"/>
<path d="M1721 294 c0 -11 3 -14 6 -6 3 7 2 16 -1 19 -3 4 -6 -2 -5 -13z"/>
<path d="M812 291 c-15 -9 -10 -67 7 -84 15 -15 41 0 41 23 0 17 -4 20 -20 15
-14 -5 -20 -2 -20 9 0 9 6 16 14 16 8 0 16 7 20 15 6 17 -20 21 -42 6z"/>
<path d="M1590 291 c0 -5 5 -13 10 -16 6 -3 10 -2 10 4 0 5 -4 13 -10 16 -5 3
-10 2 -10 -4z"/>
<path d="M630 274 c0 -8 5 -12 10 -9 6 3 10 10 10 16 0 5 -4 9 -10 9 -5 0 -10
-7 -10 -16z"/>
<path d="M674 279 c-5 -8 -3 -9 6 -4 7 4 16 2 22 -6 8 -12 9 -12 6 0 -6 20
-24 25 -34 10z"/>
<path d="M915 280 c3 -5 8 -10 11 -10 2 0 4 5 4 10 0 6 -5 10 -11 10 -5 0 -7
-4 -4 -10z"/>
<path d="M1220 265 c0 -13 -3 -16 -8 -8 -5 8 -13 9 -22 3 -13 -8 -12 -10 3
-10 9 0 17 -8 18 -17 0 -15 2 -15 9 2 5 12 9 14 9 6 1 -8 3 -12 6 -9 3 3 1 16
-4 29 -9 21 -10 22 -11 4z"/>
<path d="M515 261 c-10 -18 17 -23 33 -7 15 15 15 16 -5 16 -12 0 -24 -4 -28
-9z"/>
<path d="M577 263 c-3 -5 1 -22 8 -37 8 -16 12 -32 9 -37 -7 -13 16 -40 27
-33 5 3 6 10 3 16 -4 6 -7 26 -6 45 1 19 -3 31 -8 28 -5 -3 -13 2 -18 11 -5 9
-12 12 -15 7z"/>
<path d="M735 260 c3 -5 8 -10 11 -10 2 0 4 5 4 10 0 6 -5 10 -11 10 -5 0 -7
-4 -4 -10z"/>
<path d="M920 235 c0 -8 0 -17 0 -20 0 -3 3 -4 7 -2 10 3 11 37 1 37 -4 0 -8
-7 -8 -15z"/>
<path d="M1088 225 c2 -14 6 -25 8 -25 2 0 4 11 4 25 0 14 -4 25 -9 25 -4 0
-6 -11 -3 -25z"/>
<path d="M1282 225 c0 -16 2 -22 5 -12 2 9 2 23 0 30 -3 6 -5 -1 -5 -18z"/>
<path d="M1970 242 c0 -5 7 -13 16 -16 10 -4 14 -1 12 6 -5 15 -28 23 -28 10z"/>
<path d="M490 221 c0 -11 5 -23 10 -26 6 -3 10 3 10 14 0 11 -4 23 -10 26 -5
3 -10 -3 -10 -14z"/>
<path d="M772 208 c2 -26 -1 -33 -15 -32 -14 2 -15 -1 -5 -13 14 -17 0 -30
-44 -40 -26 -5 -40 -23 -18 -23 6 0 10 -9 10 -20 0 -11 -6 -20 -13 -20 -8 0
-21 -8 -30 -18 -21 -22 -7 -47 21 -38 11 4 31 9 43 11 12 3 26 10 30 17 11 18
2 23 -16 8 -12 -10 -16 -9 -21 3 -6 17 24 57 43 57 7 0 10 7 7 15 -4 8 -1 15
5 15 6 0 11 -4 11 -10 0 -5 7 -10 15 -10 8 0 15 7 15 16 0 9 -5 12 -11 8 -7
-4 -10 -1 -7 6 7 21 48 20 48 -1 0 -9 -4 -19 -9 -21 -15 -6 -24 -48 -9 -49 7
0 2 -5 -12 -11 -25 -11 -25 -11 -2 -15 24 -5 29 -18 10 -27 -7 -3 -1 -4 15 -1
16 3 27 1 27 -5 0 -6 4 -9 10 -5 13 8 1 35 -16 35 -8 0 -14 9 -14 20 0 11 -4
20 -10 20 -5 0 -7 7 -4 15 5 11 11 8 28 -12 l22 -25 2 35 c2 23 -2 37 -13 41
-15 5 -22 27 -7 24 4 0 15 2 24 6 32 14 9 24 -34 15 -59 -11 -58 -11 -56 9 2
32 -2 52 -12 52 -6 0 -9 -15 -8 -32z"/>
<path d="M435 221 c-6 -11 9 -23 19 -14 9 9 7 23 -3 23 -6 0 -12 -4 -16 -9z"/>
<path d="M1440 216 c0 -2 7 -9 15 -16 13 -11 14 -10 9 4 -5 14 -24 23 -24 12z"/>
<path d="M634 199 c-12 -20 18 -33 69 -30 29 2 19 28 -14 35 -42 8 -47 8 -55
-5z m49 -16 c-7 -2 -21 -2 -30 0 -10 3 -4 5 12 5 17 0 24 -2 18 -5z"/>
<path d="M1030 199 c0 -5 5 -7 10 -4 6 3 10 8 10 11 0 2 -4 4 -10 4 -5 0 -10
-5 -10 -11z"/>
<path d="M1310 200 c0 -5 7 -7 15 -4 8 4 15 8 15 10 0 2 -7 4 -15 4 -8 0 -15
-4 -15 -10z"/>
<path d="M1980 173 c0 -22 -2 -25 -10 -13 -5 8 -10 10 -10 5 0 -6 14 -22 30
-37 17 -14 30 -25 30 -24 0 2 -7 17 -16 35 -9 17 -13 38 -10 46 3 8 1 15 -4
15 -6 0 -10 -12 -10 -27z"/>
<path d="M1080 164 c0 -14 3 -14 15 -4 8 7 15 14 15 16 0 2 -7 4 -15 4 -8 0
-15 -7 -15 -16z"/>
<path d="M1545 160 c-3 -5 -1 -10 4 -10 6 0 11 5 11 10 0 6 -2 10 -4 10 -3 0
-8 -4 -11 -10z"/>
<path d="M1865 160 c-3 -5 1 -10 10 -10 9 0 13 5 10 10 -3 6 -8 10 -10 10 -2
0 -7 -4 -10 -10z"/>
<path d="M960 150 c-12 -8 -10 -10 8 -10 13 0 20 4 17 10 -7 12 -6 12 -25 0z"/>
<path d="M636 141 c-11 -18 7 -41 24 -31 13 8 13 11 -1 26 -11 11 -19 12 -23
5z"/>
<path d="M2370 140 c0 -5 7 -10 16 -10 8 0 12 5 9 10 -3 6 -10 10 -16 10 -5 0
-9 -4 -9 -10z"/>
<path d="M1095 127 c-4 -10 -5 -21 -1 -24 10 -10 18 4 13 24 -4 17 -4 17 -12
0z"/>
<path d="M1145 130 c-3 -5 -1 -10 4 -10 6 0 11 5 11 10 0 6 -2 10 -4 10 -3 0
-8 -4 -11 -10z"/>
<path d="M920 106 c-13 -13 -13 -86 0 -86 6 0 10 10 11 23 0 21 1 21 9 2 8
-18 9 -17 9 8 1 16 5 36 10 46 7 13 5 17 -10 17 -11 0 -24 -5 -29 -10z"/>
<path d="M2055 110 c4 -6 11 -8 16 -5 14 9 11 15 -7 15 -8 0 -12 -5 -9 -10z"/>
<path d="M1190 100 c0 -6 4 -18 9 -28 5 -9 13 -27 18 -40 7 -20 8 -17 9 18 1
30 -2 40 -12 36 -8 -3 -11 0 -7 10 3 7 0 14 -6 14 -6 0 -11 -5 -11 -10z"/>
<path d="M1158 75 c2 -14 8 -22 13 -19 5 3 5 14 -1 25 -14 26 -18 24 -12 -6z"/>
<path d="M1070 81 c0 -5 -9 -13 -20 -16 -11 -4 -18 -11 -14 -16 3 -5 18 -2 35
8 32 19 38 33 14 33 -8 0 -15 -4 -15 -9z"/>
<path d="M1301 83 c0 -6 -4 -20 -7 -30 -5 -14 -4 -15 5 -7 7 7 11 20 8 30 -3
11 -5 14 -6 7z"/>
<path d="M1121 63 c-1 -7 -10 -13 -21 -13 -21 0 -29 -33 -10 -45 6 -3 10 1 10
9 0 9 5 16 11 16 5 0 8 -4 5 -8 -3 -5 1 -9 9 -9 17 0 18 12 5 42 -5 11 -9 14
-9 8z"/>
<path d="M1261 54 c0 -11 3 -14 6 -6 3 7 2 16 -1 19 -3 4 -6 -2 -5 -13z"/>
<path d="M554 49 c-4 -7 2 -17 12 -23 17 -10 14 -12 -21 -17 l-40 -6 48 -2
c26 0 48 2 48 7 8 44 5 52 -17 52 -12 0 -26 -5 -30 -11z"/>
<path d="M2105 39 c-4 -6 -5 -13 -2 -16 7 -7 27 6 27 18 0 12 -17 12 -25 -2z"/>
<path d="M767 27 c-10 -25 -9 -27 7 -27 8 0 18 5 22 12 4 6 3 8 -4 4 -6 -3
-12 2 -14 11 -3 17 -4 17 -11 0z"/>
<path d="M890 21 c0 -10 19 -25 25 -20 1 2 -3 10 -11 17 -8 7 -14 8 -14 3z"/>
<path d="M1050 9 c0 -5 5 -7 10 -4 6 3 10 8 10 11 0 2 -4 4 -10 4 -5 0 -10 -5
-10 -11z"/>
<path d="M1150 16 c0 -2 7 -7 16 -10 8 -3 12 -2 9 4 -6 10 -25 14 -25 6z"/>
</g>
</svg>
